<svg width="125" height="28" viewBox="0 0 125 28" fill="none" xmlns="http://www.w3.org/2000/svg">
<path d="M49.9584 11.0932C51.2761 10.8638 53.1867 9.3566 53.1867 6.57156C53.1867 2.90186 50.6502 0.477234 46.6642 0.477234H35.7935V22.4299H46.6972C51.6055 22.4299 53.8126 19.907 53.8126 16.3356C53.8126 13.2229 51.7702 11.4536 49.9584 11.2242V11.0932ZM40.2735 4.27799H46.1701C47.6195 4.27799 48.8384 5.29372 48.8384 6.83368C48.8384 8.53747 47.6525 9.65148 45.8736 9.65148H40.2735V4.27799ZM40.2735 18.6291V13.1901H46.3678C48.0478 13.1901 49.2337 14.2386 49.2337 15.9096C49.2337 17.5479 48.2125 18.6291 46.203 18.6291H40.2735Z" fill="#131415"/>
<path d="M72.2077 6.08008H67.8594V13.3212C67.8594 17.3185 66.2453 18.9568 63.7746 18.9568C61.7652 18.9568 60.4475 17.4168 60.4475 15.1233V6.08008H56.0992V16.0407C56.0992 20.1036 58.7345 22.9214 62.6875 22.9214C64.8617 22.9214 66.5747 22.2333 67.8594 20.9555V22.4299H72.2077V6.08008Z" fill="#131415"/>
<path d="M96.8221 5.5886C94.1868 5.5886 92.1773 6.60432 90.8267 8.27535C89.6408 6.53879 87.6314 5.5886 85.4243 5.5886C83.2831 5.5886 81.6689 6.27667 80.516 7.42345V6.08008H76.1677V22.4299H80.516V14.5663C80.516 11.1259 81.9654 9.55319 84.2713 9.55319C86.0831 9.55319 87.4996 10.8966 87.4996 13.0918V22.4299H91.8479V14.5663C91.8479 11.1259 93.3632 9.55319 95.6692 9.55319C97.481 9.55319 98.8974 10.8966 98.8974 13.0918V22.4299H103.213V12.2072C103.213 8.20982 100.248 5.5886 96.8221 5.5886Z" fill="#131415"/>
<path d="M116.561 5.5886C114.321 5.5886 112.51 6.24391 111.126 7.39069V6.08008H106.778V28H111.126V21.1521C112.51 22.2661 114.321 22.9214 116.561 22.9214C120.745 22.9214 124.632 19.4155 124.632 14.2714C124.632 9.12724 120.745 5.5886 116.561 5.5886ZM115.804 19.1534C113.465 19.1534 111.126 17.2858 111.126 14.2714C111.126 11.257 113.465 9.3566 115.804 9.3566C118.439 9.3566 120.416 11.257 120.416 14.2714C120.416 17.2858 118.439 19.1534 115.804 19.1534Z" fill="#131415"/>
<path d="M19.6872 13.0545C22.4055 13.0545 24.6091 15.2463 24.6091 17.9499C24.6091 20.6536 22.4055 22.8454 19.6872 22.8454L0 22.8454L5.16334e-07 13.0545L19.6872 13.0545Z" fill="#131415"/>
<path d="M6.56243 2.37762e-07C9.28067 3.36247e-07 11.4842 2.19176 11.4842 4.89544C11.4842 7.59911 9.28067 9.79087 6.56243 9.79087H1.41579e-05L1.46743e-05 0L6.56243 2.37762e-07Z" fill="#131415"/>
<path d="M24.6091 4.89543C24.6091 7.59911 22.4055 9.79087 19.6873 9.79087C16.969 9.79087 14.7654 7.59911 14.7654 4.89543C14.7654 2.19176 16.969 0 19.6873 0C22.4055 0 24.6091 2.19176 24.6091 4.89543Z" fill="url(#paint0_linear)"/>
<defs>
<linearGradient id="paint0_linear" x1="14.7946" y1="4.77246" x2="24.8168" y2="4.77246" gradientUnits="userSpaceOnUse">
<stop stop-color="#19AEFF"/>
<stop offset="1" stop-color="#015CD5"/>
</linearGradient>
</defs>
</svg>